<svg width="1358" height="750" viewBox="0 0 1358 750" fill="none" xmlns="http://www.w3.org/2000/svg">
<path fill-rule="evenodd" clip-rule="evenodd" d="M833.618 193.409C906.176 126.463 998.51 84.9748 1082.6 115.997C1192.76 156.639 1304.4 236.254 1280.82 358.397C1256.28 485.567 1119.7 555.972 992.653 581.997C870.004 607.12 732.916 588.681 688.339 479.761C647.265 379.4 745.584 274.634 833.618 193.409Z" fill="#F7EFC2"/>
<path fill-rule="evenodd" clip-rule="evenodd" d="M496.937 686.482C299.863 686.51 94.5122 679.211 27.711 660.252C-45.0299 639.608 29.3872 616.188 204.628 603.522C373.45 591.32 597.658 594.521 764.588 606.993C929.999 619.35 1028.9 640.315 962.212 660.121C898.395 679.074 692.963 686.455 496.937 686.482Z" fill="#E7F6FD"/>
</svg>
