<svg width="2022" height="1117" viewBox="0 0 2022 1117" fill="none" xmlns="http://www.w3.org/2000/svg">
<path fill-rule="evenodd" clip-rule="evenodd" d="M1241.22 288.051C1349.26 188.345 1486.74 126.556 1611.94 172.758C1775.96 233.288 1942.19 351.861 1907.09 533.772C1870.54 723.172 1667.19 828.028 1478.01 866.788C1295.4 904.205 1091.28 876.742 1024.91 714.524C963.748 565.054 1110.14 409.022 1241.22 288.051Z" fill="#F7EFC2"/>
<path fill-rule="evenodd" clip-rule="evenodd" d="M739.917 1022.4C446.482 1022.44 140.724 1011.57 41.2604 983.336C-67.0475 952.589 43.7561 917.71 304.681 898.846C556.05 880.673 889.886 885.441 1138.44 904.015C1384.73 922.419 1531.99 953.642 1432.69 983.14C1337.67 1011.37 1031.79 1022.36 739.917 1022.4Z" fill="#E7F6FD"/>
</svg>
