<svg width="1540" height="776" viewBox="0 0 1540 776" fill="none" xmlns="http://www.w3.org/2000/svg">
<path fill-rule="evenodd" clip-rule="evenodd" d="M914.404 -145.944C1034.47 -256.728 1187.25 -325.383 1326.4 -274.046C1508.68 -206.792 1693.42 -75.0441 1654.41 127.08C1613.79 337.523 1387.79 454.03 1177.56 497.096C974.613 538.671 747.77 508.157 674.008 327.915C606.042 161.837 768.732 -11.5316 914.404 -145.944Z" fill="#EFDE85"/>
<path fill-rule="evenodd" clip-rule="evenodd" d="M357.292 670C31.1893 670.046 -308.609 657.967 -419.146 626.594C-539.512 592.431 -416.373 553.676 -126.399 532.716C152.955 512.524 523.957 517.822 800.18 538.459C1073.89 558.909 1237.54 593.601 1127.19 626.377C1021.59 657.74 681.66 669.954 357.292 670Z" fill="#E7F6FD"/>
</svg>
