<svg width="50" height="50" viewBox="0 0 50 50" fill="none" xmlns="http://www.w3.org/2000/svg">
<rect width="50" height="50" rx="5.90551" fill="#1A365D"/>
<path fill-rule="evenodd" clip-rule="evenodd" d="M7.55286 22.7885C7.50485 23.32 7.48032 23.8583 7.48032 24.4023C7.48032 34.1829 15.4091 42.1117 25.1897 42.1117C34.9704 42.1117 42.8991 34.1829 42.8991 24.4023C42.8991 14.6217 34.9704 6.6929 25.1897 6.6929C23.627 6.6929 22.1115 6.89531 20.6682 7.27535L24.3118 8.68548C24.6024 8.6695 24.8951 8.66141 25.1897 8.66141C33.8832 8.66141 40.9306 15.7088 40.9306 24.4023C40.9306 33.0958 33.8832 40.1432 25.1897 40.1432C16.4963 40.1432 9.44882 33.0958 9.44882 24.4023C9.44882 23.3337 9.55531 22.2899 9.75825 21.281L7.55286 22.7885Z" fill="url(#paint0_linear)"/>
<path d="M25.0418 17.126V26.378L45.246 7.28265" stroke="#4299E1" stroke-width="1.9685"/>
<defs>
<linearGradient id="paint0_linear" x1="42.9504" y1="23.522" x2="4.27519" y2="23.522" gradientUnits="userSpaceOnUse">
<stop offset="0.677083" stop-color="white"/>
<stop offset="0.958333" stop-color="#0B2A3E" stop-opacity="0.12"/>
</linearGradient>
</defs>
</svg>
