<svg width="205" height="51" viewBox="0 0 205 51" fill="none" xmlns="http://www.w3.org/2000/svg">
<rect y="-1.90735e-06" width="50" height="50" rx="5.90551" fill="#0B2A3F"/>
<path fill-rule="evenodd" clip-rule="evenodd" d="M7.55289 22.7885C7.50488 23.32 7.48035 23.8583 7.48035 24.4023C7.48035 34.1829 15.4091 42.1117 25.1897 42.1117C34.9704 42.1117 42.8992 34.1829 42.8992 24.4023C42.8992 14.6217 34.9704 6.69291 25.1897 6.69291C23.627 6.69291 22.1116 6.89532 20.6682 7.27536L24.3118 8.68548C24.6024 8.66951 24.8951 8.66141 25.1897 8.66141C33.8832 8.66141 40.9306 15.7089 40.9306 24.4023C40.9306 33.0958 33.8832 40.1432 25.1897 40.1432C16.4963 40.1432 9.44885 33.0958 9.44885 24.4023C9.44885 23.3337 9.55534 22.2899 9.75829 21.2811L7.55289 22.7885Z" fill="url(#paint0_linear)"/>
<path d="M25.0419 17.126V26.3779L45.246 7.28264" stroke="#2F9FD6" stroke-width="1.9685"/>
<path d="M79.476 11.908H61.584C61.188 11.908 60.864 12.16 60.864 12.556C60.864 12.916 61.188 13.24 61.584 13.24H69.9V36.424C69.9 36.856 70.152 37.144 70.548 37.144C70.944 37.144 71.232 36.82 71.232 36.424V13.24H79.476C79.872 13.24 80.196 12.934 80.196 12.574C80.196 12.178 79.872 11.908 79.476 11.908ZM97.2226 11.908H89.5186C88.6546 11.908 88.1866 12.52 88.1866 13.24V36.46C88.1866 36.82 88.4746 37.144 88.8346 37.144C89.1946 37.144 89.5186 36.82 89.5186 36.46V26.272H95.0626C96.0706 26.272 96.4306 26.596 97.0426 27.388L104.549 36.892C104.657 37.036 104.855 37.144 105.071 37.144C105.449 37.144 105.755 36.838 105.755 36.46C105.755 36.316 105.719 36.172 105.611 36.028L97.8706 26.236C102.263 25.732 104.927 23.662 104.927 19.234C104.927 14.572 101.975 11.908 97.2226 11.908ZM97.4746 13.24C101.507 13.24 103.595 15.688 103.595 19.234C103.595 22.654 101.687 24.94 96.8266 24.94H89.5186V13.24H97.4746ZM133.645 11.764C133.285 11.764 132.997 12.052 132.997 12.448V26.992C132.997 32.464 129.433 35.956 124.681 35.956C119.929 35.956 116.401 32.464 116.401 26.992V12.448C116.401 12.052 116.113 11.764 115.717 11.764C115.357 11.764 115.069 12.052 115.069 12.448V27.28C115.069 33.22 119.137 37.288 124.681 37.288C130.225 37.288 134.329 33.22 134.329 27.28V12.448C134.329 12.052 134.041 11.764 133.645 11.764ZM160.503 11.908H142.611C142.215 11.908 141.891 12.16 141.891 12.556C141.891 12.916 142.215 13.24 142.611 13.24H150.927V36.424C150.927 36.856 151.179 37.144 151.575 37.144C151.971 37.144 152.259 36.82 152.259 36.424V13.24H160.503C160.899 13.24 161.223 12.934 161.223 12.574C161.223 12.178 160.899 11.908 160.503 11.908ZM187.393 11.764C187.033 11.764 186.709 12.052 186.709 12.448V23.734H170.545V12.448C170.545 12.052 170.257 11.764 169.861 11.764C169.501 11.764 169.213 12.052 169.213 12.448V36.424C169.213 36.856 169.465 37.144 169.861 37.144C170.257 37.144 170.545 36.82 170.545 36.424V25.066H186.709V36.46C186.709 36.82 187.033 37.144 187.393 37.144C187.789 37.144 188.041 36.856 188.041 36.46V12.448C188.041 12.052 187.789 11.764 187.393 11.764Z" fill="#2F9FD6"/>
<defs>
<linearGradient id="paint0_linear" x1="42.9504" y1="23.522" x2="4.27522" y2="23.522" gradientUnits="userSpaceOnUse">
<stop offset="0.677083" stop-color="white"/>
<stop offset="0.958333" stop-color="#0B2A3E" stop-opacity="0.12"/>
</linearGradient>
</defs>
</svg>
